<?xml version="1.0" standalone="no"?><!DOCTYPE svg PUBLIC "-//W3C//DTD SVG 1.1//EN" "http://www.w3.org/Graphics/SVG/1.1/DTD/svg11.dtd">
<svg class="icon" width="200px" height="200.00px" viewBox="0 0 1024 1024" version="1.1"
    xmlns="http://www.w3.org/2000/svg">
    <path fill="#333333" d="M608 149.333333a32 32 0 0 0-64 0v256c0 41.130667 33.536 74.666667 74.666667 74.666667h256a32 32 0 0 0 0-64H618.666667a10.794667 10.794667 0 0 1-10.666667-10.666667V149.333333zM149.333333 544a32 32 0 0 0 0 64h256c5.802667 0 10.666667 4.864 10.666667 10.666667v256a32 32 0 0 0 64 0V618.666667c0-41.130667-33.536-74.666667-74.666667-74.666667H149.333333z" />
</svg>